HIERARCHY
ROOT Hips
{
	OFFSET	0.00	0.00	0.00
	CHANNELS 6 Xposition Yposition Zposition Zrotation Xrotation Yrotation
	JOINT LeftUpLeg
	{
		OFFSET	 0.126116	-0.065224	 0.014019
		CHANNELS 3 Zrotation Xrotation Yrotation
		JOINT LeftLeg
		{
			OFFSET	 0.000000	 0.569914	 0.000000
			CHANNELS 3 Zrotation Xrotation Yrotation
			JOINT LeftFoot
			{
				OFFSET	 0.000000	 0.544423	 0.000000
				CHANNELS 3 Zrotation Xrotation Yrotation
				JOINT LeftToeBase
				{
					OFFSET	 0.000000	 0.207117	 0.000000
					CHANNELS 3 Zrotation Xrotation Yrotation
					End Site
					{
						OFFSET	 0.000000	 0.207117	 0.000000
					}
				}
			}
		}
	}
	JOINT RightUpLeg
	{
		OFFSET	-0.124023	-0.065224	 0.008373
		CHANNELS 3 Zrotation Xrotation Yrotation
		JOINT RightLeg
		{
			OFFSET	 0.000000	 0.570047	 0.000000
			CHANNELS 3 Zrotation Xrotation Yrotation
			JOINT RightFoot
			{
				OFFSET	 0.000000	 0.544354	 0.000000
				CHANNELS 3 Zrotation Xrotation Yrotation
				JOINT RightToeBase
				{
					OFFSET	 0.000000	 0.207540	 0.000000
					CHANNELS 3 Zrotation Xrotation Yrotation
					End Site
					{
						OFFSET	 0.000000	 0.207540	 0.000000
					}
				}
			}
		}
	}
	JOINT Spine
	{
		OFFSET	 0.000184	 0.117403	 0.007763
		CHANNELS 3 Zrotation Xrotation Yrotation
		JOINT Spine1
		{
			OFFSET	 0.000000	 0.137269	 0.000000
			CHANNELS 3 Zrotation Xrotation Yrotation
			JOINT Spine2
			{
				OFFSET	 0.000000	 0.156879	 0.000000
				CHANNELS 3 Zrotation Xrotation Yrotation
				JOINT LeftShoulder
				{
					OFFSET	 0.080501	 0.160143	 0.002496
					CHANNELS 3 Zrotation Xrotation Yrotation
					JOINT LeftArm
					{
						OFFSET	 0.000000	 0.164363	 0.000000
						CHANNELS 3 Zrotation Xrotation Yrotation
						JOINT LeftForeArm
						{
							OFFSET	 0.000000	 0.364576	 0.000000
							CHANNELS 3 Zrotation Xrotation Yrotation
							JOINT LeftHand
							{
								OFFSET	 0.000000	 0.360812	 0.000000
								CHANNELS 3 Zrotation Xrotation Yrotation
								JOINT LeftHandIndex1
								{
									OFFSET	 0.000000	 0.086006	 0.000000
									CHANNELS 3 Zrotation Xrotation Yrotation
									JOINT LeftHandIndex2
									{
										OFFSET	 0.000000	 0.047237	 0.000000
										CHANNELS 3 Zrotation Xrotation Yrotation
										JOINT LeftHandIndex3
										{
											OFFSET	-0.004284	 0.038165	 0.000551
											CHANNELS 3 Zrotation Xrotation Yrotation
											End Site
											{
												OFFSET	-0.004284	 0.038165	 0.000551
											}
										}
									}
								}
							}
						}
					}
				}
				JOINT Neck
				{
					OFFSET	 0.000000	 0.176489	 0.000000
					CHANNELS 3 Zrotation Xrotation Yrotation
					JOINT Head
					{
						OFFSET	 0.000000	 0.077941	 0.001747
						CHANNELS 3 Zrotation Xrotation Yrotation
						End Site
						{
							OFFSET	 0.000000	 0.077941	 0.001747
						}
					}
				}
				JOINT RightShoulder
				{
					OFFSET	-0.080363	 0.159706	-0.000306
					CHANNELS 3 Zrotation Xrotation Yrotation
					JOINT RightArm
					{
						OFFSET	 0.000000	 0.164196	 0.000000
						CHANNELS 3 Zrotation Xrotation Yrotation
						JOINT RightForeArm
						{
							OFFSET	 0.000000	 0.365611	 0.000000
							CHANNELS 3 Zrotation Xrotation Yrotation
							JOINT RightHand
							{
								OFFSET	 0.000000	 0.360648	 0.000000
								CHANNELS 3 Zrotation Xrotation Yrotation
								JOINT RightHandIndex1
								{
									OFFSET	 0.000000	 0.069977	 0.000000
									CHANNELS 3 Zrotation Xrotation Yrotation
									JOINT RightHandIndex2
									{
										OFFSET	 0.000000	 0.052305	 0.000000
										CHANNELS 3 Zrotation Xrotation Yrotation
										JOINT RightHandIndex3
										{
											OFFSET	 0.009002	 0.042196	 0.000782
											CHANNELS 3 Zrotation Xrotation Yrotation
											End Site
											{
												OFFSET	 0.009002	 0.042196	 0.000782
											}
										}
									}
								}
							}
						}
					}
				}
			}
		}
	}
}
MOTION
Frames:    5
Frame Time: 0.03333334
 0.001415	 1.265498	-0.199191	 0.015582	-0.011746	 179.999900	-179.231600	-0.359658	-0.138461	 3.020078	-13.965850	 0.112538	-5.184511	 73.573220	 5.219247	 1.292262	 28.425850	-2.713146	 178.320700	-14.679690	 0.413067	-1.011069	-4.905591	 0.222939	 6.752725	 78.863800	-7.814206	-1.288183	 28.361890	 2.710176	-0.089620	 2.704450	-0.000518	 0.008075	 3.690148	-0.000993	-0.003816	-4.717756	-0.004156	-101.478000	 1.740669	 90.353390	-5.173706	 55.195530	 6.975078	 10.882570	 21.557300	-0.622641	 7.826726	-26.461030	 0.788031	-6.580301	 5.266122	 0.000000	 0.000000	 0.000000	 0.000000	 0.000000	 0.000000	 0.000000	 0.089846	-3.783161	 0.005928	 0.000015	 1.263154	-0.001370	 101.796200	-0.213307	-89.955450	-21.752570	 24.299910	 28.180880	-100.986000	 56.417030	 63.649950	 9.200007	-51.744160	-35.613910	 15.208500	 5.323790	 0.000000	 0.000000	 0.000000	 0.000000	 0.000000	 0.000000	 0.000000
 0.001415	 1.265928	-0.197501	 0.015595	-0.011746	 179.999900	-179.237900	-0.308077	-0.138844	 3.034460	-14.029690	 0.116017	-5.182280	 73.530690	 5.211213	 1.292262	 28.425850	-2.713146	 178.320900	-14.595720	 0.408476	-1.011433	-4.907332	 0.222903	 6.649373	 78.727920	-7.710814	-1.288183	 28.361890	 2.710176	-0.089620	 2.704451	-0.000518	 0.008088	 3.690316	-0.000993	-0.003820	-4.717894	-0.004099	-101.478000	 1.740663	 90.353380	-5.249853	 54.883860	 7.006803	 10.994920	 21.756480	-0.664104	 7.733453	-23.359000	 0.760317	-6.580301	 5.266122	 0.000000	 0.000000	 0.000000	 0.000000	 0.000000	 0.000000	 0.000000	 0.089846	-3.783161	 0.005928	 0.000015	 1.263154	-0.001370	 101.796200	-0.213312	-89.955440	-24.780430	 22.982400	 32.037910	-100.607800	 56.450380	 63.155780	 14.590530	-48.476780	-33.542520	 15.208500	 5.323790	 0.000000	 0.000000	 0.000000	 0.000000	 0.000000	 0.000000	 0.000000
 0.001414	 1.266353	-0.195824	 0.015593	-0.011744	 179.999900	-179.243800	-0.259182	-0.139117	 3.047714	-14.088480	 0.119240	-5.178578	 73.486180	 5.202215	 1.292262	 28.425850	-2.713146	 178.321100	-14.512480	 0.403820	-1.011781	-4.909008	 0.222864	 6.548785	 78.593190	-7.610165	-1.288183	 28.361890	 2.710176	-0.089620	 2.704450	-0.000518	 0.008119	 3.690141	-0.000994	-0.003843	-4.717776	-0.004219	-101.478000	 1.740670	 90.353390	-5.322649	 54.574750	 7.035194	 11.102040	 21.945950	-0.703982	 7.642631	-20.049360	 0.733752	-6.580301	 5.266122	 0.000000	 0.000000	 0.000000	 0.000000	 0.000000	 0.000000	 0.000000	 0.089846	-3.783161	 0.005928	 0.000015	 1.263154	-0.001370	 101.796200	-0.213311	-89.955450	-27.941130	 21.566400	 35.876280	-99.301010	 56.555900	 61.885400	 19.487030	-44.719290	-31.944730	 15.208500	 5.323790	 0.000000	 0.000000	 0.000000	 0.000000	 0.000000	 0.000000	 0.000000
 0.001408	 1.270319	-0.180198	 0.015593	-0.011744	 179.999900	-179.277300	 0.094129	-0.142889	 3.123617	-14.424530	 0.137932	-5.095274	 72.962120	 5.092649	 1.292262	 28.425850	-2.713146	 178.322900	-13.733350	 0.363423	-1.014929	-4.924207	 0.222595	 5.727037	 77.331420	-6.788063	-1.288183	 28.361890	 2.710176	-0.089620	 2.704450	-0.000518	 0.008097	 3.690146	-0.000993	-0.003827	-4.717752	-0.004157	-101.478000	 1.740674	 90.353390	-5.868496	 51.879450	 7.154996	 11.908480	 23.354240	-1.014510	 6.982370	 7.767488	 0.612034	-6.580301	 5.266122	 0.000000	 0.000000	 0.000000	 0.000000	 0.000000	 0.000000	 0.000000	 0.089846	-3.783161	 0.005928	 0.000015	 1.263154	-0.001370	 101.796200	-0.213313	-89.955440	-60.732530	 3.892965	 61.436280	-46.423670	 48.022000	 17.000670	 38.305560	-8.121894	-44.349080	 15.208500	 5.323790	 0.000000	 0.000000	 0.000000	 0.000000	 0.000000	 0.000000	 0.000000
 0.001407	 1.270790	-0.178345	 0.015580	-0.011744	 179.999900	-179.278700	 0.123804	-0.143376	 3.126939	-14.439220	 0.138759	-5.079409	 72.887000	 5.076376	 1.292262	 28.425850	-2.713146	 178.323100	-13.640620	 0.359014	-1.015294	-4.925976	 0.222573	 5.641921	 77.181140	-6.702940	-1.288183	 28.361890	 2.710176	-0.089620	 2.704450	-0.000518	 0.008073	 3.690150	-0.000993	-0.003816	-4.717757	-0.004158	-101.478000	 1.740677	 90.353390	-5.922198	 51.607110	 7.158278	 11.989440	 23.493740	-1.046745	 6.931860	 8.576889	 0.610511	-6.580301	 5.266122	 0.000000	 0.000000	 0.000000	 0.000000	 0.000000	 0.000000	 0.000000	 0.089846	-3.783161	 0.005928	 0.000015	 1.263154	-0.001370	 101.796200	-0.213315	-89.955440	-64.848920	 1.726752	 62.613590	-38.901500	 43.933910	 11.352070	 36.903210	-6.200905	-48.362530	 15.208500	 5.323790	 0.000000	 0.000000	 0.000000	 0.000000	 0.000000	 0.000000	 0.000000
